<svg width="90" height="30" viewBox="0 0 90 30" fill="none" xmlns="http://www.w3.org/2000/svg">
<g clip-path="url(#clip0_5668_74440)">
<mask id="mask0_5668_74440" style="mask-type:luminance" maskUnits="userSpaceOnUse" x="0" y="0" width="90" height="30">
<path d="M89.167 0.728516H0.166992V29.7285H89.167V0.728516Z" fill="white"/>
</mask>
<g mask="url(#mask0_5668_74440)">
<path d="M61.906 15.8107C61.906 16.0004 61.8639 16.1263 61.7792 16.1884C61.1115 16.5359 60.0939 16.6617 59.2664 16.6617C56.7206 16.6617 54.4639 15.4632 54.4639 12.6228C54.4639 10.9811 55.3217 9.81534 56.2764 9.24619C57.2611 8.64691 58.1849 8.58398 59.0758 8.58398C59.8069 8.58398 60.6978 8.70987 60.9214 8.74269C61.1445 8.77552 61.4949 8.83848 61.7488 8.86858C61.8756 8.86858 61.9086 8.9315 61.9086 8.99442C61.9086 9.12031 61.8452 9.4049 61.8452 10.6992C61.8452 10.8579 61.8122 10.9209 61.7184 10.9209C61.6551 10.9209 61.6221 10.8579 61.6221 10.795C61.5886 10.5432 61.5253 10.2258 61.2717 9.94395C60.9544 9.62926 60.1269 9.1559 58.949 9.1559C58.3755 9.1559 57.614 9.18872 56.8803 9.78797C56.3068 10.2614 55.9261 11.0495 55.9261 12.3136C55.9261 14.5219 57.3574 16.1938 59.5534 16.1938C59.8399 16.1938 60.1903 16.1938 60.4442 16.068C60.604 16.005 60.6344 15.8463 60.6344 15.6903V13.4821C60.6344 13.1346 60.538 12.9759 60.1903 12.8828C60.0939 12.85 59.9367 12.85 59.7765 12.85C59.6801 12.85 59.6167 12.8171 59.6167 12.7542C59.6167 12.6584 59.6801 12.6584 59.8399 12.6584C60.3808 12.6584 61.0481 12.6913 61.3351 12.6913C61.652 12.6913 62.193 12.6584 62.5433 12.6584C62.6701 12.6584 62.7665 12.6913 62.7665 12.7542C62.7665 12.8171 62.7031 12.85 62.6397 12.85C62.5433 12.85 62.4799 12.85 62.3527 12.8828C62.0662 12.9458 61.9724 13.1045 61.9724 13.4821V15.8162H61.9086L61.906 15.8107Z" fill="#085D95"/>
<path d="M65.6274 11.68C65.6274 10.101 65.6274 9.81922 65.5939 9.5018C65.5609 9.15428 65.4975 8.99557 65.1502 8.90255C65.0534 8.86969 64.8963 8.86969 64.7365 8.86969C64.6093 8.86969 64.5459 8.83686 64.5459 8.77394C64.5459 8.71098 64.6093 8.67816 64.7695 8.67816H65.597C65.8839 8.67816 66.1071 8.71098 66.2642 8.71098H68.8739C69.0641 8.67816 69.2243 8.67816 69.318 8.64806C69.3814 8.64806 69.4448 8.61523 69.4778 8.61523C69.5412 8.61523 69.5412 8.64806 69.5412 8.71098C69.5412 8.77394 69.4778 8.89979 69.4448 9.37319C69.4448 9.46898 69.4118 9.94234 69.3814 10.0682C69.3814 10.1311 69.3484 10.1941 69.2846 10.1941C69.2212 10.1941 69.1882 10.1311 69.1882 10.0354C69.1882 9.97243 69.1882 9.78363 69.1248 9.65778C69.0615 9.46898 68.9347 9.34309 68.4241 9.28017C68.234 9.2473 67.1525 9.2473 66.9624 9.2473C66.899 9.2473 66.899 9.28017 66.899 9.34309V11.9618C66.899 12.0247 66.899 12.0877 66.9624 12.0877C67.1855 12.0877 68.3937 12.0877 68.6173 12.0548C68.8709 12.022 69.0311 11.9919 69.1274 11.8961C69.1908 11.8004 69.2546 11.7703 69.2876 11.7703C69.3206 11.7703 69.351 11.8031 69.351 11.866C69.351 11.929 69.318 12.0877 69.2546 12.624C69.2546 12.8456 69.2212 13.2561 69.2212 13.319C69.2212 13.4148 69.2212 13.5078 69.1248 13.5078C69.0615 13.5078 69.0285 13.475 69.0285 13.4121C69.0285 13.3163 69.0285 13.1603 68.995 13.0344C68.9316 12.8128 68.8049 12.6869 68.4215 12.624C68.2309 12.5911 67.1803 12.5911 66.9593 12.5911C66.8959 12.5911 66.8959 12.624 66.8959 12.6869V15.1168C66.9294 15.8419 67.0865 15.9678 68.1372 15.9678C68.3911 15.9678 68.8379 15.9678 69.1222 15.8419C69.4088 15.7161 69.5025 15.4944 69.5994 15.084C69.6324 14.9581 69.6323 14.9253 69.7261 14.9253C69.8199 14.9253 69.8225 15.021 69.8225 15.1141C69.8225 15.3658 69.7261 16.0609 69.6957 16.2497C69.6324 16.5343 69.536 16.5343 69.1222 16.5343C68.3277 16.5343 67.7868 16.5014 67.3097 16.5014C66.8655 16.4686 66.5456 16.4686 66.2286 16.4686H65.6243C65.3708 16.4686 65.1142 16.5014 64.8936 16.5014C64.7664 16.5014 64.6701 16.4686 64.6701 16.4056C64.6701 16.3427 64.7031 16.3099 64.8303 16.3099C64.99 16.3099 65.1168 16.277 65.2106 16.277C65.4342 16.2442 65.4646 15.9924 65.4975 15.7079C65.5609 15.2673 65.5609 14.4464 65.5609 13.4996V11.669H65.6243L65.6274 11.68Z" fill="#085D95"/>
<path d="M73.612 15.0856C73.645 15.8737 73.7718 16.1583 73.9624 16.2213C74.1525 16.2842 74.3431 16.2842 74.5029 16.2842C74.6297 16.2842 74.6935 16.3171 74.6935 16.38C74.6935 16.4758 74.5967 16.4758 74.4395 16.4758C73.7718 16.4758 73.3581 16.4429 73.1349 16.4429C73.0381 16.4429 72.561 16.4758 72.0205 16.4758C71.8937 16.4758 71.7969 16.4758 71.7969 16.38C71.7969 16.3171 71.8607 16.2842 71.9571 16.2842C72.0838 16.2842 72.2744 16.2842 72.4342 16.2213C72.6882 16.1255 72.7516 15.8436 72.7516 14.9269L72.8479 8.8358C72.8479 8.61417 72.8809 8.48828 72.9747 8.48828C73.1019 8.48828 73.1983 8.61417 73.3555 8.80298C73.4822 8.92886 75.0738 10.6336 76.569 12.1167C77.2697 12.8117 78.6681 14.2949 78.8583 14.4837H78.9216L78.8253 9.84552C78.8253 9.21341 78.7289 9.02461 78.4749 8.93159C78.3151 8.86866 78.0612 8.86866 77.9344 8.86866C77.8076 8.86866 77.7742 8.8358 77.7742 8.77288C77.7742 8.67709 77.9014 8.67709 78.0282 8.67709C78.5687 8.67709 79.0792 8.70996 79.2998 8.70996C79.4266 8.70996 79.8099 8.67709 80.3174 8.67709C80.4442 8.67709 80.5714 8.67709 80.5714 8.77288C80.5714 8.8358 80.508 8.86866 80.3808 8.86866C80.2844 8.86866 80.1907 8.86866 80.0639 8.90149C79.7769 8.99727 79.6831 9.18608 79.6831 9.78533L79.5564 16.287C79.5564 16.5086 79.5229 16.6016 79.4292 16.6016C79.3024 16.6016 79.1756 16.4758 79.0792 16.38C78.4115 15.7479 77.1069 14.4235 76.0255 13.3508C74.881 12.2453 73.7362 10.9538 73.546 10.7622H73.5126L73.6094 15.0856H73.612Z" fill="#085D95"/>
<path d="M85.0954 9.27867L83.5373 9.31149C82.933 9.34436 82.6794 9.37445 82.5192 9.59609C82.4228 9.75479 82.3594 9.88068 82.3291 9.9436C82.2961 10.0394 82.2657 10.0695 82.2023 10.0695C82.1385 10.0695 82.1055 10.0065 82.1055 9.91078C82.1055 9.75207 82.2961 8.80526 82.3291 8.71224C82.362 8.58636 82.3924 8.52344 82.4558 8.52344C82.5522 8.52344 82.6464 8.61922 82.9 8.64932C83.1869 8.68215 83.6007 8.71224 83.951 8.71224H88.0554C88.3724 8.71224 88.629 8.67942 88.7861 8.64932C88.9433 8.61922 89.0401 8.58636 89.0731 8.58636C89.1365 8.58636 89.1695 8.64932 89.1695 8.80803C89.1695 9.02966 89.1365 9.72197 89.1365 10.0065C89.1365 10.1023 89.1035 10.1652 89.0401 10.1652C88.9433 10.1652 88.9433 10.1023 88.9133 9.9436V9.81772C88.8799 9.56599 88.6263 9.24857 87.6717 9.24857L86.367 9.21575V13.4434C86.367 14.3902 86.3671 15.2111 86.4304 15.6517C86.4639 15.9362 86.5272 16.1579 86.8442 16.2208C87.0044 16.2536 87.2249 16.2536 87.3851 16.2536C87.5119 16.2536 87.5449 16.2865 87.5449 16.3494C87.5449 16.4124 87.4485 16.4452 87.3547 16.4452C86.654 16.4452 86.0197 16.4124 85.7328 16.4124C85.4788 16.4124 84.8419 16.4452 84.4282 16.4452C84.3014 16.4452 84.2046 16.4124 84.2046 16.3494C84.2046 16.2865 84.2376 16.2536 84.3648 16.2536C84.5245 16.2536 84.6513 16.2208 84.7451 16.2208C84.9687 16.188 85.032 15.9362 85.032 15.6517C85.0954 15.2111 85.0954 14.3902 85.0954 13.4434V9.27867Z" fill="#085D95"/>
<path d="M2.58311 12.1502H2.64655C2.99686 11.7726 4.52221 10.2265 4.80909 9.87899C5.09593 9.53148 5.31934 9.27975 5.31934 9.09094C5.31934 8.96505 5.28626 8.90213 5.15936 8.86927C5.06285 8.83644 5.0325 8.83644 5.0325 8.77352C5.0325 8.71056 5.09593 8.67773 5.19249 8.67773C5.4159 8.67773 5.98689 8.71056 6.27373 8.71056C6.59096 8.71056 7.16468 8.67773 7.48187 8.67773C7.57842 8.67773 7.6722 8.71056 7.6722 8.77352C7.6722 8.83644 7.60877 8.86927 7.51222 8.86927C7.35223 8.86927 7.09848 8.90213 6.90815 8.99515C6.59096 9.12104 6.24065 9.34267 5.79378 9.78325C5.47659 10.0979 3.91814 11.644 3.53473 12.0243C3.91538 12.4977 5.95103 14.6759 6.36477 15.0535C6.80886 15.494 7.28603 15.9373 7.8598 16.1589C8.17698 16.2848 8.37005 16.3177 8.49695 16.3177C8.56038 16.3177 8.62385 16.3505 8.62385 16.4134C8.62385 16.4764 8.56038 16.5092 8.37005 16.5092H7.47914C7.1619 16.5092 6.96884 16.5092 6.74816 16.4764C6.17444 16.4134 5.92068 16.1918 5.44351 15.8142C4.99938 15.4037 2.93066 13.0368 2.70723 12.7221L2.58035 12.5634H2.51691V13.5101C2.51691 14.457 2.51691 15.2779 2.55001 15.7184C2.58311 16.003 2.6769 16.2246 2.93066 16.2876C3.09064 16.3204 3.31131 16.3204 3.44095 16.3204C3.53749 16.3204 3.56783 16.3532 3.56783 16.4162C3.56783 16.4791 3.47129 16.512 3.37751 16.512C2.80377 16.512 2.13626 16.4791 1.8825 16.4791C1.62873 16.4791 0.991561 16.512 0.577811 16.512C0.450928 16.512 0.354387 16.4791 0.354387 16.4162C0.354387 16.3532 0.387487 16.3204 0.514369 16.3204C0.674352 16.3204 0.801235 16.2876 0.89502 16.2876C1.11844 16.2547 1.14878 16.003 1.18188 15.7184C1.24532 15.2779 1.24532 14.457 1.24532 13.5101V11.6795C1.24532 10.1007 1.24532 9.8188 1.21222 9.50138C1.17913 9.15386 1.11568 8.99515 0.768136 8.90213C0.671595 8.86927 0.514369 8.86927 0.354387 8.86927C0.227504 8.86927 0.164062 8.83644 0.164062 8.77352C0.164062 8.71056 0.227504 8.67773 0.387487 8.67773C0.928119 8.67773 1.59563 8.71056 1.8494 8.71056C2.10316 8.71056 2.74033 8.67773 3.12098 8.67773C3.28097 8.67773 3.34441 8.71056 3.34441 8.77352C3.34441 8.83644 3.28097 8.86927 3.18443 8.86927C3.08788 8.86927 3.02444 8.86927 2.89756 8.90213C2.61069 8.96505 2.54725 9.12376 2.51691 9.50138C2.48381 9.81607 2.48381 10.1335 2.48381 11.6795V12.1529H2.58035L2.58311 12.1502Z" fill="#085D95"/>
<path d="M10.3146 11.68C10.3146 10.101 10.3146 9.81922 10.2816 9.5018C10.2485 9.15428 10.185 8.99557 9.83747 8.90255C9.74092 8.86969 9.58371 8.86969 9.42373 8.86969C9.29683 8.86969 9.2334 8.83686 9.2334 8.77394C9.2334 8.71098 9.29683 8.67816 9.45681 8.67816H10.2843C10.5381 8.67816 10.7946 8.71098 10.9518 8.71098H13.5612C13.7515 8.67816 13.9115 8.67816 14.0053 8.64806C14.0687 8.64806 14.1322 8.61523 14.1653 8.61523C14.2287 8.61523 14.2287 8.64806 14.2287 8.71098C14.2287 8.77394 14.1653 8.89979 14.1322 9.37319C14.1322 9.46898 14.0991 9.94234 14.0687 10.0682C14.0687 10.1311 14.0356 10.1941 13.9722 10.1941C13.9088 10.1941 13.8756 10.1311 13.8756 10.0354C13.8756 9.97243 13.8756 9.78363 13.8122 9.65778C13.7488 9.46898 13.6219 9.34309 13.1116 9.28017C12.9213 9.2473 11.84 9.2473 11.6497 9.2473C11.5863 9.2473 11.5863 9.28017 11.5863 9.34309V11.9618C11.5863 12.0247 11.5863 12.0877 11.6497 12.0877C11.8731 12.0877 13.0812 12.0877 13.3047 12.0548C13.5585 12.022 13.7184 11.9919 13.8149 11.8961C13.8784 11.8004 13.9418 11.7703 13.9749 11.7703C14.0081 11.7703 14.0384 11.8031 14.0384 11.866C14.0384 11.929 14.0053 12.0877 13.9418 12.624C13.9418 12.8456 13.9088 13.2561 13.9088 13.319C13.9088 13.4148 13.9088 13.5078 13.8122 13.5078C13.7488 13.5078 13.7157 13.475 13.7157 13.4121C13.7157 13.3163 13.7157 13.1603 13.6826 13.0344C13.6191 12.8128 13.4922 12.6869 13.1088 12.624C12.9819 12.5911 11.9311 12.5911 11.7104 12.5911C11.6469 12.5911 11.6469 12.624 11.6469 12.6869V15.1168C11.68 15.8419 11.8372 15.9678 12.8882 15.9678C13.1751 15.9678 13.5888 15.9678 13.8729 15.8419C14.1597 15.7161 14.2535 15.4944 14.3501 15.084C14.3832 14.9581 14.3832 14.9253 14.477 14.9253C14.5708 14.9253 14.5735 15.021 14.5735 15.1141C14.5735 15.3658 14.477 16.0609 14.4466 16.2497C14.3832 16.5343 14.2866 16.5343 13.8729 16.5343C13.0785 16.5343 12.5379 16.5014 12.0607 16.5014C11.6166 16.4686 11.2966 16.4686 10.9794 16.4686H10.3753C10.1216 16.4686 9.86504 16.5014 9.6444 16.5014C9.5175 16.5014 9.42095 16.4686 9.42095 16.4056C9.42095 16.3427 9.45407 16.3099 9.58093 16.3099C9.74092 16.3099 9.86782 16.277 9.96159 16.277C10.185 16.2442 10.2154 15.9924 10.2485 15.7079C10.3119 15.2673 10.3119 14.4464 10.3119 13.4996V11.669L10.3146 11.68Z" fill="#085D95"/>
<path d="M17.9465 11.6787C17.9465 10.0998 17.9465 9.81799 17.9134 9.50058C17.8803 9.15306 17.7865 8.96425 17.5631 8.93139C17.4362 8.89856 17.3093 8.89856 17.1824 8.89856C17.0859 8.89856 17.0225 8.86574 17.0225 8.80277C17.0225 8.73985 17.119 8.70703 17.2762 8.70703C17.6569 8.70703 18.3272 8.73985 18.6113 8.73985C18.865 8.73985 19.4691 8.70703 19.8828 8.70703C20.0097 8.70703 20.1062 8.73985 20.1062 8.80277C20.1062 8.89856 20.0428 8.89856 19.9463 8.89856C19.8498 8.89856 19.756 8.89856 19.6291 8.93139C19.3422 8.99435 19.2788 9.15306 19.2484 9.53068C19.2153 9.84533 19.2153 10.1627 19.2153 11.7088V13.5394C19.2153 14.5492 19.2153 15.37 19.2484 15.8106C19.2815 16.0952 19.345 16.284 19.6622 16.3168C19.8221 16.3497 20.0428 16.3497 20.2028 16.3497C20.3297 16.3497 20.3628 16.3825 20.3628 16.4455C20.3628 16.5084 20.2662 16.5412 20.1725 16.5412C19.4719 16.5412 18.8375 16.5084 18.5506 16.5084C18.2968 16.5084 17.6596 16.5412 17.2459 16.5412C17.119 16.5412 17.0225 16.5084 17.0225 16.4455C17.0225 16.3825 17.0555 16.3497 17.1824 16.3497C17.3424 16.3497 17.4693 16.3168 17.5631 16.3168C17.7865 16.284 17.8169 16.0952 17.8499 15.8106C17.9134 15.37 17.9134 14.5492 17.9134 13.5695V11.676H17.9465V11.6787Z" fill="#085D95"/>
<path d="M23.4494 11.6795C23.4494 10.1007 23.4494 9.8188 23.4163 9.50138C23.3832 9.15386 23.3198 8.99515 22.9722 8.90213C22.8757 8.86927 22.7185 8.86927 22.5585 8.86927C22.4316 8.86927 22.3682 8.83644 22.3682 8.77352C22.3682 8.71056 22.4316 8.67773 22.5916 8.67773C23.1322 8.67773 23.7997 8.71056 24.0232 8.71056C24.3734 8.71056 25.1678 8.67773 25.4851 8.67773C26.1526 8.67773 26.8201 8.74066 27.3938 9.11832C27.6807 9.30712 28.0944 9.84345 28.0944 10.5385C28.0944 11.2964 27.7772 11.9887 26.7263 12.8425C27.6476 14.0109 28.3813 14.9249 28.9854 15.557C29.5591 16.1562 30.0032 16.2191 30.1632 16.252C30.2901 16.2848 30.3866 16.2848 30.4501 16.2848C30.5466 16.2848 30.5769 16.3177 30.5769 16.3806C30.5769 16.4764 30.5135 16.4764 30.3866 16.4764H29.4019C28.8281 16.4764 28.5744 16.4134 28.2875 16.2876C27.8434 16.0358 27.46 15.5624 26.8559 14.7716C26.4422 14.2025 25.965 13.5101 25.8381 13.3514C25.7747 13.2885 25.7113 13.2885 25.6478 13.2885L24.7569 13.2557C24.6934 13.2557 24.6603 13.2885 24.6603 13.3514V13.5101C24.6603 14.457 24.6603 15.2779 24.7238 15.7184C24.7569 16.003 24.8203 16.2547 25.1375 16.2876C25.2975 16.3204 25.5182 16.3204 25.6478 16.3204C25.7443 16.3204 25.7747 16.3532 25.7747 16.4162C25.7747 16.4791 25.7113 16.512 25.5513 16.512C24.9472 16.512 24.1832 16.4791 24.0232 16.4791C23.8328 16.4791 23.1653 16.512 22.7516 16.512C22.6247 16.512 22.5281 16.4791 22.5281 16.4162C22.5281 16.3532 22.5612 16.3204 22.6881 16.3204C22.8481 16.3204 22.975 16.2876 23.0688 16.2876C23.2922 16.2547 23.3225 16.003 23.3556 15.7184C23.4191 15.2779 23.4191 14.457 23.4191 13.5101V11.6795H23.4522H23.4494ZM24.6907 12.5005C24.6907 12.6263 24.7238 12.6592 24.7872 12.6893C25.0106 12.7522 25.3278 12.785 25.5816 12.785C25.9954 12.785 26.1222 12.7522 26.3126 12.5962C26.6298 12.3746 26.9166 11.9012 26.9166 11.0502C26.9166 9.59989 25.9319 9.15659 25.3251 9.15659C25.0713 9.15659 24.881 9.15659 24.7844 9.18945C24.721 9.22228 24.6879 9.25237 24.6879 9.34816V12.5032L24.6907 12.5005Z" fill="#085D95"/>
<path d="M32.133 11.6787C32.133 10.0998 32.133 9.81799 32.0999 9.50058C32.0668 9.15306 31.973 8.96425 31.7496 8.93139C31.6227 8.89856 31.4958 8.89856 31.369 8.89856C31.2724 8.89856 31.209 8.86574 31.209 8.80277C31.209 8.73985 31.3055 8.70703 31.4627 8.70703C31.8434 8.70703 32.5137 8.73985 32.7978 8.73985C33.0515 8.73985 33.6556 8.70703 34.0694 8.70703C34.1963 8.70703 34.2928 8.73985 34.2928 8.80277C34.2928 8.89856 34.2293 8.89856 34.1328 8.89856C34.0363 8.89856 33.9425 8.89856 33.8156 8.93139C33.5287 8.99435 33.4653 9.15306 33.4349 9.53068C33.4019 9.84533 33.4019 10.1627 33.4019 11.7088V13.5394C33.4019 14.5492 33.4019 15.37 33.4349 15.8106C33.4681 16.0952 33.5315 16.284 33.8487 16.3168C34.0087 16.3497 34.2293 16.3497 34.3893 16.3497C34.5162 16.3497 34.5493 16.3825 34.5493 16.4455C34.5493 16.5084 34.4528 16.5412 34.359 16.5412C33.6583 16.5412 33.0239 16.5084 32.7371 16.5084C32.4833 16.5084 31.8461 16.5412 31.4324 16.5412C31.3055 16.5412 31.209 16.5084 31.209 16.4455C31.209 16.3825 31.2421 16.3497 31.369 16.3497C31.5289 16.3497 31.6558 16.3168 31.7496 16.3168C31.973 16.284 32.0034 16.0952 32.0365 15.8106C32.0999 15.37 32.0999 14.5492 32.0999 13.5695V11.676H32.133V11.6787Z" fill="#085D95"/>
<path d="M39.9912 17.8648L44.9839 13.0352L40.6587 14.4553L39.9912 17.8648Z" fill="#B8B9B9"/>
<path d="M50.1371 17.8648L45.1748 13.0352L49.4694 14.4553L50.1371 17.8648Z" fill="#B8B9B9"/>
<path d="M39.9913 17.8636L45.0804 8.01819V0.728516L37.5088 15.4009L39.9913 17.8636Z" fill="url(#paint0_linear_5668_74440)"/>
<path d="M45.0801 0.728516V8.01819L50.1361 17.8636L52.6186 15.4009L45.0801 0.728516Z" fill="url(#paint1_linear_5668_74440)"/>
<path d="M15.3711 26.0679H15.8813C16.1048 25.7833 16.1986 25.6574 16.262 25.5945C15.8179 25.0581 15.4676 24.8064 15.3076 24.7106L15.7214 23.9527C15.8813 24.0484 15.8813 24.0785 15.9448 24.1114C16.262 23.6051 16.422 23.1974 16.4854 23.0059L17.2495 23.2275C17.0261 23.7009 16.6757 24.3002 16.4854 24.5847C16.6123 24.7106 16.6757 24.7736 16.7723 24.8994C17.153 24.3303 17.3129 24.0484 17.4398 23.794L18.1708 24.1086C17.6936 24.9295 16.9626 25.8134 16.8026 26.0323C16.8661 26.0323 16.9295 26.0323 17.4398 25.9995C17.3764 25.7477 17.3433 25.7149 17.3129 25.5589L17.8867 25.3701C18.0466 25.7477 18.1735 26.2539 18.2673 26.7574L17.6301 26.9463C17.6301 26.8204 17.597 26.7574 17.597 26.6945C17.5336 26.6945 17.3102 26.7274 17.2798 26.7274V29.7264H16.5158V26.793C16.4192 26.793 15.4649 26.8888 15.4649 26.8888L15.3683 26.0679H15.3711ZM16.3254 27.2664C16.3254 27.4251 16.262 28.6537 16.0717 29.3488L15.3711 29.0341C15.4345 28.7824 15.5945 28.339 15.6579 27.2035L16.3254 27.2664ZM18.0439 28.7167L17.6633 28.7796C17.6633 28.339 17.5998 27.6741 17.5033 27.2336L18.1073 27.0749C18.2977 27.8328 18.2977 28.5251 18.2977 28.6537H19.7292V27.8328H18.4576V27.0119H19.7292V26.3798H20.6201V27.0119H22.0186V27.8328H20.6201V28.6537H22.2751V29.4747H18.0439V28.7167ZM19.2217 24.0156H18.2673V23.2275H21.9248V24.0156C21.8283 24.2372 21.638 24.6477 20.8739 25.3099C21.1608 25.4358 21.5414 25.5945 22.3689 25.7833L22.0517 26.6343C21.5414 26.5084 20.8739 26.2868 20.143 25.8763C19.412 26.3497 18.8383 26.5084 18.5514 26.6015L18.1377 25.8435C18.3914 25.7805 18.8052 25.6547 19.4423 25.3372C18.9983 24.9268 18.7418 24.5492 18.5845 24.2947L19.2217 24.0101V24.0156ZM19.2851 24.0156C19.4755 24.2673 19.7292 24.6149 20.1126 24.8994C20.6533 24.489 20.7801 24.2673 20.9401 24.0156H19.2851Z" fill="#231815"/>
<path d="M22.9727 28.3397C23.2595 28.2768 23.483 28.2138 23.8636 28.1181V26.3202H23.163V25.4993H23.8636V24.1749H23.0995V23.3239H25.422V24.1749H24.7214V25.4993H25.3255V26.3202H24.7214V27.8362C25.1021 27.7103 25.2317 27.6775 25.422 27.5845V28.4355C24.7849 28.72 23.6402 29.0976 23.0995 29.2235L22.9727 28.3397ZM25.6455 23.1953H29.6533V26.665H28.0618V27.2643H29.7167V28.0223H28.0618V28.6845H29.8436V29.5054H25.1986V28.6845H27.2342V28.0223H25.6124V27.2643H27.2342V26.665H25.6427V23.1953H25.6455ZM26.4398 23.9834V24.6155H27.2342V23.9834H26.4398ZM26.4398 25.2449V25.9071H27.2342V25.2449H26.4398ZM28.0618 23.9834V24.6155H28.8258V23.9834H28.0618ZM28.0618 25.2449V25.9071H28.8258V25.2449H28.0618Z" fill="#231815"/>
<path d="M36.7782 23.8582V24.7722H34.6156V28.0531H37.1616V28.9998H31.0547V28.0531H33.6006V24.8023H31.4381V23.8883H36.7809V23.8555L36.7782 23.8582Z" fill="#231815"/>
<path d="M44.3167 25.8457V26.8552H37.9561V25.8457H44.3167Z" fill="#231815"/>
<path d="M47.4966 26.7C46.7022 26.2595 45.7145 25.942 45.4609 25.8791L45.8113 25.0582C46.7022 25.2798 47.2427 25.4987 47.88 25.8162L47.4993 26.7H47.4966ZM45.8747 28.309C48.3875 28.0873 49.7555 27.458 50.7098 24.4589L51.6011 24.8995C50.55 27.8329 49.215 28.9712 46.1313 29.3488L45.8773 28.3063L45.8747 28.309ZM48.1005 25.0281C47.6564 24.8065 47.0191 24.5219 46.0318 24.24L46.4126 23.4191C47.6208 23.7338 48.2247 24.0184 48.5117 24.1443L48.0979 25.0281H48.1005ZM50.2326 24.24C50.1996 24.0512 50.1059 23.5778 49.9157 23.1044L50.5196 23.0087C50.6464 23.3233 50.7432 23.545 50.87 24.1142L50.2326 24.24ZM51.2837 24.0813C51.2507 23.9856 51.1235 23.4821 50.9333 23.0087L51.5372 22.8828C51.7278 23.2933 51.8876 23.7968 51.918 23.9254L51.2811 24.0841L51.2837 24.0813Z" fill="#231815"/>
<path d="M58.1519 24.9961V25.817H56.4031V28.3426H58.4389V29.1636H53.4766V28.3426H55.5123V25.817H53.7635V24.9961H58.1519Z" fill="#231815"/>
<path d="M62.5436 25.5303C62.3834 25.4345 61.4291 24.8052 60.3477 24.4576L60.7918 23.6367C61.8429 23.9213 62.5735 24.2989 63.0511 24.6136L62.5405 25.5276L62.5436 25.5303ZM60.4445 28.3077C62.7667 28.149 64.6123 27.4239 65.6299 24.1101L66.5512 24.5507C65.4367 27.9575 63.5942 29 60.7614 29.3475L60.4445 28.305V28.3077Z" fill="#231815"/>
<path d="M69.9854 23.2266V24.9942C71.2266 25.3089 72.4019 25.8781 73.5163 26.5102L73.0388 27.4871C72.4019 27.0465 70.8129 26.1928 69.9854 25.9711V29.4737H68.9678V23.2266H69.9854Z" fill="#231815"/>
</g>
</g>
<defs>
<linearGradient id="paint0_linear_5668_74440" x1="39.3982" y1="5.5281" x2="46.7691" y2="15.5448" gradientUnits="userSpaceOnUse">
<stop stop-color="#024B85"/>
<stop offset="0.13" stop-color="#024E88"/>
<stop offset="0.25" stop-color="#075591"/>
<stop offset="0.35" stop-color="#05609F"/>
<stop offset="0.62" stop-color="#246EAC"/>
<stop offset="0.84" stop-color="#3678B5"/>
<stop offset="1" stop-color="#3A7AB7"/>
</linearGradient>
<linearGradient id="paint1_linear_5668_74440" x1="42.8762" y1="2.9696" x2="50.2472" y2="12.9864" gradientUnits="userSpaceOnUse">
<stop stop-color="#024B85"/>
<stop offset="0.13" stop-color="#024E88"/>
<stop offset="0.25" stop-color="#075591"/>
<stop offset="0.35" stop-color="#05609F"/>
<stop offset="0.62" stop-color="#246EAC"/>
<stop offset="0.84" stop-color="#3678B5"/>
<stop offset="1" stop-color="#3A7AB7"/>
</linearGradient>
<clipPath id="clip0_5668_74440">
<rect width="89" height="29" fill="white" transform="translate(0.166992 0.728516)"/>
</clipPath>
</defs>
</svg>
